<?xml version="1.0" encoding="UTF-8"?>
<svg version="1.1" xmlns="http://www.w3.org/2000/svg" width="512" height="512">
<path d="M0 0 C1.51427582 0.00081573 1.51427582 0.00081573 3.05914307 0.00164795 C19.56873539 0.04241399 35.48532001 0.94970691 51.6875 4.375 C52.72938477 4.59462402 53.77126953 4.81424805 54.84472656 5.04052734 C101.13799311 15.13814785 143.55163721 37.49728758 177.6875 70.375 C178.6765332 71.32318604 178.6765332 71.32318604 179.68554688 72.29052734 C189.17380305 81.43497479 197.9137044 90.73234009 205.6875 101.375 C206.54556152 102.52605017 207.40363451 103.67709177 208.26171875 104.828125 C214.30041574 113.01930857 219.6713509 121.52497349 224.6875 130.375 C225.08437012 131.06625977 225.48124023 131.75751953 225.89013672 132.46972656 C241.96390503 160.71518219 251.48722112 192.2375954 255.6875 224.375 C255.81632568 225.35205399 255.81632568 225.35205399 255.94775391 226.34884644 C256.65087679 232.08038475 256.86198315 237.73661075 256.890625 243.5078125 C256.89768463 244.45416061 256.90474426 245.40050873 256.91201782 246.37553406 C257.13991099 285.89152112 257.13991099 285.89152112 253.6875 302.375 C253.38948486 303.83728027 253.38948486 303.83728027 253.08544922 305.32910156 C242.96482806 353.7109774 221.0483123 397.69928269 186.6875 433.375 C186.05537598 434.03435547 185.42325195 434.69371094 184.77197266 435.37304688 C175.62752521 444.86130305 166.33015991 453.6012044 155.6875 461.375 C154.53644983 462.23306152 153.38540823 463.09113451 152.234375 463.94921875 C144.04474019 469.98677396 135.54211724 475.36957302 126.6875 480.375 C125.98028809 480.7771875 125.27307617 481.179375 124.54443359 481.59375 C101.40904164 494.6191741 76.23787591 503.36801461 50.25 508.6875 C49.53110596 508.83485596 48.81221191 508.98221191 48.0715332 509.1340332 C32.59304085 512.07599807 17.28147313 512.74737337 1.5625 512.6875 C0.56893494 512.68567719 -0.42463013 512.68385437 -1.44830322 512.68197632 C-15.942192 512.63719978 -30.05386097 512.17610213 -44.3125 509.375 C-45.20807617 509.21402832 -46.10365234 509.05305664 -47.02636719 508.88720703 C-90.63313051 500.99797508 -131.77106217 481.30850867 -165.3125 452.375 C-166.05757813 451.74078125 -166.80265625 451.1065625 -167.5703125 450.453125 C-181.07529833 438.64198485 -193.74668743 425.89139772 -204.3125 411.375 C-205.16899066 410.22505169 -206.02576433 409.07531411 -206.8828125 407.92578125 C-212.9234414 399.73410474 -218.28255071 391.21854922 -223.3125 382.375 C-223.67698242 381.74319824 -224.04146484 381.11139648 -224.41699219 380.46044922 C-239.34835402 354.37339649 -248.82170268 325.03999753 -253.3125 295.375 C-253.48982666 294.25617432 -253.66715332 293.13734863 -253.84985352 291.98461914 C-255.53126341 280.26264053 -255.66984341 268.64001024 -255.625 256.8125 C-255.62176727 255.28189438 -255.62176727 255.28189438 -255.61846924 253.72036743 C-255.56883352 239.09289476 -255.32169712 224.74236162 -252.3125 210.375 C-252.11382324 209.40014648 -251.91514648 208.42529297 -251.71044922 207.42089844 C-241.58982806 159.0390226 -219.6733123 115.05071731 -185.3125 79.375 C-184.68037598 78.71564453 -184.04825195 78.05628906 -183.39697266 77.37695312 C-174.25252521 67.88869695 -164.95515991 59.1487956 -154.3125 51.375 C-153.16144983 50.51693848 -152.01040823 49.65886549 -150.859375 48.80078125 C-142.66974019 42.76322604 -134.16711724 37.38042698 -125.3125 32.375 C-124.60528809 31.9728125 -123.89807617 31.570625 -123.16943359 31.15625 C-100.03404164 18.1308259 -74.86287591 9.38198539 -48.875 4.0625 C-48.15610596 3.91514404 -47.43721191 3.76778809 -46.6965332 3.6159668 C-31.16987908 0.66484793 -15.76936592 -0.03207988 0 0 Z " fill="#FE9356" transform="translate(255.3125,-0.375)"/>
<path d="M0 0 C1.51427582 0.00081573 1.51427582 0.00081573 3.05914307 0.00164795 C19.56873539 0.04241399 35.48532001 0.94970691 51.6875 4.375 C52.72938477 4.59462402 53.77126953 4.81424805 54.84472656 5.04052734 C101.13799311 15.13814785 143.55163721 37.49728758 177.6875 70.375 C178.6765332 71.32318604 178.6765332 71.32318604 179.68554688 72.29052734 C189.17380305 81.43497479 197.9137044 90.73234009 205.6875 101.375 C206.54556152 102.52605017 207.40363451 103.67709177 208.26171875 104.828125 C214.30041574 113.01930857 219.6713509 121.52497349 224.6875 130.375 C225.08437012 131.06625977 225.48124023 131.75751953 225.89013672 132.46972656 C241.96390503 160.71518219 251.48722112 192.2375954 255.6875 224.375 C255.81632568 225.35205399 255.81632568 225.35205399 255.94775391 226.34884644 C256.65087679 232.08038475 256.86198315 237.73661075 256.890625 243.5078125 C256.89768463 244.45416061 256.90474426 245.40050873 256.91201782 246.37553406 C257.13991099 285.89152112 257.13991099 285.89152112 253.6875 302.375 C253.38948486 303.83728027 253.38948486 303.83728027 253.08544922 305.32910156 C242.96482806 353.7109774 221.0483123 397.69928269 186.6875 433.375 C186.05537598 434.03435547 185.42325195 434.69371094 184.77197266 435.37304688 C175.62752521 444.86130305 166.33015991 453.6012044 155.6875 461.375 C154.53644983 462.23306152 153.38540823 463.09113451 152.234375 463.94921875 C144.04474019 469.98677396 135.54211724 475.36957302 126.6875 480.375 C125.98028809 480.7771875 125.27307617 481.179375 124.54443359 481.59375 C101.40904164 494.6191741 76.23787591 503.36801461 50.25 508.6875 C49.53110596 508.83485596 48.81221191 508.98221191 48.0715332 509.1340332 C32.59304085 512.07599807 17.28147313 512.74737337 1.5625 512.6875 C0.56893494 512.68567719 -0.42463013 512.68385437 -1.44830322 512.68197632 C-15.942192 512.63719978 -30.05386097 512.17610213 -44.3125 509.375 C-45.20807617 509.21402832 -46.10365234 509.05305664 -47.02636719 508.88720703 C-90.63313051 500.99797508 -131.77106217 481.30850867 -165.3125 452.375 C-166.05757813 451.74078125 -166.80265625 451.1065625 -167.5703125 450.453125 C-181.07529833 438.64198485 -193.74668743 425.89139772 -204.3125 411.375 C-205.16899066 410.22505169 -206.02576433 409.07531411 -206.8828125 407.92578125 C-212.9234414 399.73410474 -218.28255071 391.21854922 -223.3125 382.375 C-223.67698242 381.74319824 -224.04146484 381.11139648 -224.41699219 380.46044922 C-239.34835402 354.37339649 -248.82170268 325.03999753 -253.3125 295.375 C-253.48982666 294.25617432 -253.66715332 293.13734863 -253.84985352 291.98461914 C-255.53126341 280.26264053 -255.66984341 268.64001024 -255.625 256.8125 C-255.62176727 255.28189438 -255.62176727 255.28189438 -255.61846924 253.72036743 C-255.56883352 239.09289476 -255.32169712 224.74236162 -252.3125 210.375 C-252.11382324 209.40014648 -251.91514648 208.42529297 -251.71044922 207.42089844 C-241.58982806 159.0390226 -219.6733123 115.05071731 -185.3125 79.375 C-184.68037598 78.71564453 -184.04825195 78.05628906 -183.39697266 77.37695312 C-174.25252521 67.88869695 -164.95515991 59.1487956 -154.3125 51.375 C-153.16144983 50.51693848 -152.01040823 49.65886549 -150.859375 48.80078125 C-142.66974019 42.76322604 -134.16711724 37.38042698 -125.3125 32.375 C-124.60528809 31.9728125 -123.89807617 31.570625 -123.16943359 31.15625 C-100.03404164 18.1308259 -74.86287591 9.38198539 -48.875 4.0625 C-48.15610596 3.91514404 -47.43721191 3.76778809 -46.6965332 3.6159668 C-31.16987908 0.66484793 -15.76936592 -0.03207988 0 0 Z M-77.3125 76.375 C-77.3125 90.895 -77.3125 105.415 -77.3125 120.375 C-84.5725 120.375 -91.8325 120.375 -99.3125 120.375 C-99.3125 113.115 -99.3125 105.855 -99.3125 98.375 C-115.8125 98.375 -132.3125 98.375 -149.3125 98.375 C-149.3125 105.635 -149.3125 112.895 -149.3125 120.375 C-151.6225 120.375 -153.9325 120.375 -156.3125 120.375 C-168.0754151 122.58729137 -178.96716709 129.15472462 -186.10546875 138.796875 C-189.42394882 144.073668 -191.61327731 149.39715902 -193.3125 155.375 C-193.6425 156.365 -193.9725 157.355 -194.3125 158.375 C-194.41715742 161.17994773 -194.46468548 163.96047575 -194.46640015 166.76582336 C-194.4707824 167.63238892 -194.47516465 168.49895448 -194.4796797 169.3917796 C-194.49307657 172.30716839 -194.49924871 175.22252694 -194.50537109 178.13793945 C-194.51327171 180.22401567 -194.52154064 182.31009053 -194.53015137 184.39616394 C-194.55638838 191.26018974 -194.57168628 198.12422167 -194.5859375 204.98828125 C-194.59129755 207.35266817 -194.59667506 209.71705504 -194.60206985 212.08144188 C-194.62370602 221.92176567 -194.64243986 231.76208782 -194.65369225 241.60242939 C-194.66991016 255.69211193 -194.70302731 269.78151773 -194.76009309 283.87109596 C-194.79886391 293.78297051 -194.81833373 303.6947713 -194.82361281 313.60671967 C-194.82725805 319.52278807 -194.83919063 325.43856143 -194.87171555 331.3545475 C-194.90191957 336.92865527 -194.90806397 342.50229142 -194.89633179 348.0764637 C-194.89611205 350.11371372 -194.90433393 352.15098639 -194.92198563 354.18815994 C-195.05618286 370.57880191 -193.19438193 384.89806421 -181.3125 397.375 C-169.62232493 407.43938913 -157.31602099 411.00882527 -141.94242859 410.85601807 C-140.66133628 410.85943577 -139.38024397 410.86285347 -138.06033069 410.86637473 C-134.54362629 410.87522842 -131.02741838 410.85944572 -127.51077712 410.83926249 C-123.70388218 410.82186136 -119.89701145 410.82784306 -116.09008789 410.83087158 C-109.50735112 410.83296101 -102.9247739 410.82049497 -96.34207726 410.79792023 C-86.82482937 410.7653031 -77.30765802 410.75498332 -67.79036031 410.74996826 C-52.34628055 410.74123078 -36.90228567 410.71465736 -21.45825195 410.67675781 C-6.46281354 410.63999756 8.53260175 410.61170548 23.52807617 410.59472656 C24.45361639 410.59367567 25.37915661 410.59262477 26.3327435 410.59154204 C30.97627127 410.58632159 35.6197992 410.58126683 40.26332724 410.57629442 C78.7381109 410.53488061 117.21279983 410.46447451 155.6875 410.375 C155.6875 410.045 155.6875 409.715 155.6875 409.375 C154.0375 409.375 152.3875 409.375 150.6875 409.375 C150.6875 306.745 150.6875 204.115 150.6875 98.375 C134.1875 98.375 117.6875 98.375 100.6875 98.375 C100.6875 105.635 100.6875 112.895 100.6875 120.375 C93.4275 120.375 86.1675 120.375 78.6875 120.375 C78.6875 105.855 78.6875 91.335 78.6875 76.375 C27.2075 76.375 -24.2725 76.375 -77.3125 76.375 Z " fill="#D63D75" transform="translate(255.3125,-0.375)"/>
<path d="M0 0 C25.74 0 51.48 0 78 0 C78 14.52 78 29.04 78 44 C85.26 44 92.52 44 100 44 C100 36.74 100 29.48 100 22 C116.5 22 133 22 150 22 C150 124.63 150 227.26 150 333 C151.65 333 153.3 333 155 333 C155 333.33 155 333.66 155 334 C115.60174487 334.09162227 76.20350367 334.1620726 36.80516322 334.20426132 C32.1503007 334.20926394 27.49543838 334.21444125 22.84057617 334.21972656 C21.91390501 334.2207758 20.98723385 334.22182505 20.03248175 334.22290608 C5.0421233 334.24029546 -9.94817357 334.27182505 -24.93849554 334.30861118 C-40.32819335 334.34606147 -55.717859 334.36824449 -71.10760051 334.37635398 C-80.5983989 334.38183328 -90.08902324 334.39911825 -99.57976804 334.43166587 C-106.09429361 334.45286425 -112.60872964 334.45918803 -119.12328716 334.45400551 C-122.87783596 334.45145198 -126.63208132 334.45527354 -130.3865757 334.4768219 C-134.46788902 334.50007344 -138.54856358 334.49190634 -142.62992859 334.48101807 C-143.80214657 334.49266943 -144.97436455 334.5043208 -146.18210429 334.51632524 C-158.92993683 334.42479584 -169.07258761 330.96989445 -179 323 C-179.84433594 322.3709375 -180.68867188 321.741875 -181.55859375 321.09375 C-184.11670276 318.89991571 -185.74690232 316.83081586 -187.5625 314 C-188.12066406 313.154375 -188.67882812 312.30875 -189.25390625 311.4375 C-195.38057515 299.37604893 -195.57013315 288.37893826 -195.50170898 275.15185547 C-195.50549752 273.05795937 -195.51100194 270.96406578 -195.51808167 268.87017822 C-195.53198201 263.21326531 -195.52090533 257.55665839 -195.50437045 251.89976263 C-195.49046647 245.9654097 -195.49698597 240.03107357 -195.50050354 234.09671021 C-195.50320101 224.13554991 -195.48976839 214.17451044 -195.46655273 204.21337891 C-195.43993139 192.71164913 -195.43820233 181.21012109 -195.4499411 169.70837104 C-195.46073429 158.62170776 -195.45452062 147.53511715 -195.44038582 136.44845963 C-195.43464089 131.73977049 -195.43469691 127.0311348 -195.43945122 122.32244492 C-195.44423693 116.77536444 -195.43405324 111.22850384 -195.41249657 105.68146515 C-195.40695079 103.6506156 -195.40644301 101.61974484 -195.41144943 99.58889389 C-195.44863068 82.33827269 -193.40902851 69.18714443 -181.234375 56.07421875 C-175.09778987 50.37749375 -167.96312339 47.26354632 -160 45 C-159.01 44.67 -158.02 44.34 -157 44 C-154.69 44 -152.38 44 -150 44 C-150 139.37 -150 234.74 -150 333 C-100.5 333 -51 333 0 333 C0 296.37 0 259.74 0 222 C18.76872063 222 34.08183631 227.0824886 48 240 C52.30261354 244.43623507 56.34956859 249.01069563 60 254 C75.56099466 240.0944303 86.71922995 219.20614632 88.1953125 198.22363281 C89.16424651 173.70152791 84.06721497 151.19029171 67.69921875 132.12109375 C66 130 66 130 65.01953125 127.84765625 C63.71287842 125.4796609 62.42804186 125.10034856 60 124 C58.84716728 122.9892225 57.72394955 121.94411381 56.625 120.875 C40.8206737 106.84938939 20.50451305 101.70870942 0 100 C0 81.85 0 63.7 0 45 C-18.48 45 -36.96 45 -56 45 C-56 37.41 -56 29.82 -56 22 C-37.52 22 -19.04 22 0 22 C0 14.74 0 7.48 0 0 Z " fill="#FE745C" transform="translate(256,76)"/>
<path d="M0 0 C10.48971586 8.66288739 20.02944518 18.47221748 29.71511459 28.01123714 C33.06197259 31.3066818 36.41942329 34.58945908 39.80517578 37.8449707 C43.10166761 41.01522212 46.36705408 44.21470786 49.61356354 47.4360981 C50.84546293 48.64852888 52.08764263 49.85061586 53.34059906 51.04127312 C62.24872909 59.52637548 65.84369721 65.62889022 67 78 C67.19203155 79.3201538 67.39342298 80.63897904 67.60401917 81.95629883 C69.41701588 93.43656745 69.35646948 104.96549054 69.3125 116.5625 C69.31034485 117.58290375 69.3081897 118.6033075 69.30596924 119.65463257 C69.25633352 134.28210524 69.00919712 148.63263838 66 163 C65.70198486 164.46228027 65.70198486 164.46228027 65.39794922 165.95410156 C55.27732806 214.3359774 33.3608123 258.32428269 -1 294 C-1.63212402 294.65935547 -2.26424805 295.31871094 -2.91552734 295.99804688 C-12.05997479 305.48630305 -21.35734009 314.2262044 -32 322 C-33.15105017 322.85806152 -34.30209177 323.71613451 -35.453125 324.57421875 C-43.64275981 330.61177396 -52.14538276 335.99457302 -61 341 C-61.70721191 341.4021875 -62.41442383 341.804375 -63.14306641 342.21875 C-86.27845836 355.2441741 -111.44962409 363.99301461 -137.4375 369.3125 C-138.15639404 369.45985596 -138.87528809 369.60721191 -139.6159668 369.7590332 C-155.09445915 372.70099807 -170.40602687 373.37237337 -186.125 373.3125 C-187.11856506 373.31067719 -188.11213013 373.30885437 -189.13580322 373.30697632 C-203.61424171 373.26224751 -217.76340893 372.86134175 -232 370 C-233.47895752 369.71068604 -233.47895752 369.71068604 -234.98779297 369.41552734 C-241.68719303 368.084417 -248.3894855 366.72501776 -255 365 C-255.69719934 364.8675246 -256.39439867 364.73504919 -257.11272526 364.59855938 C-265.11218996 362.7515951 -269.51696983 358.43819576 -275.13134766 352.66333008 C-276.09682192 351.69587763 -277.06384748 350.72997123 -278.0322876 349.76548767 C-280.63842429 347.16134713 -283.22251426 344.53630392 -285.80299044 341.90676713 C-288.51025622 339.15553534 -291.23755962 336.42431058 -293.96273804 333.69084167 C-299.11190537 328.51997803 -304.24297862 323.33154369 -309.36768472 318.13644856 C-315.20634296 312.21935951 -321.06505645 306.3222998 -326.92548299 300.42678225 C-338.97266837 288.3065659 -350.99461195 276.16161618 -363 264 C-362.34 263.67 -361.68 263.34 -361 263 C-358.54497718 264.08148775 -356.24787253 265.38248026 -353.8984375 266.67578125 C-346.13668383 270.22191938 -338.73686413 270.29140308 -330.33886719 270.27415466 C-329.07333606 270.27939134 -327.80780493 270.28462802 -326.50392437 270.29002339 C-323.006978 270.30414384 -319.51012077 270.30586781 -316.01314998 270.30542648 C-312.23515296 270.30708001 -308.4571921 270.32015665 -304.67921448 270.33161926 C-296.42474541 270.35442876 -288.17030213 270.36238578 -279.91580582 270.36744571 C-274.75566477 270.370708 -269.59553114 270.37723376 -264.43539429 270.3844471 C-250.13154847 270.40400918 -235.82770954 270.42041521 -221.52384949 270.42332363 C-220.60922835 270.4235112 -219.69460721 270.42369877 -218.75227028 270.42389202 C-216.89832274 270.42425826 -215.0443752 270.42462196 -213.19042766 270.42498314 C-212.27019884 270.42516595 -211.34997001 270.42534876 -210.40185547 270.42553711 C-209.01981515 270.42580793 -209.01981515 270.42580793 -207.60985482 270.42608423 C-192.69313123 270.42962302 -177.77655225 270.45662873 -162.85987878 270.494035 C-147.52301223 270.53218521 -132.18621731 270.55148161 -116.84930229 270.55178314 C-108.24715945 270.55236627 -99.64518907 270.56076418 -91.04309082 270.58978081 C-83.71569597 270.6143849 -76.38853646 270.62151719 -69.06111139 270.60653328 C-65.32836021 270.59940055 -61.59607286 270.60006238 -57.86337471 270.62294388 C-29.2419339 270.96831784 -29.2419339 270.96831784 -5 257 C6.96850977 243.89163216 7.73411091 228.6746565 7.61523438 211.92480469 C7.61874185 209.83061271 7.62440747 207.73642341 7.63204956 205.64224243 C7.64621336 199.99364026 7.62932072 194.34552979 7.60576439 188.69697475 C7.58555694 182.76797673 7.59153989 176.83899716 7.59387207 170.90997314 C7.59381862 160.9607336 7.57413166 151.01168475 7.54199219 141.0625 C7.50506437 129.57549208 7.49632358 118.08873338 7.5032897 106.60167384 C7.50960276 95.52460936 7.4988281 84.44762989 7.47932434 73.37058258 C7.47117023 68.66748082 7.4684371 63.96442263 7.47001648 59.26131439 C7.47089784 53.72240319 7.45661161 48.18372744 7.43078995 42.64487839 C7.42365212 40.61725634 7.42153298 38.58960919 7.42490768 36.56197739 C7.44246426 23.52314924 6.87137251 13.37330622 0 2 C0 1.34 0 0.68 0 0 Z " fill="#843461" transform="translate(443,139)"/>
<path d="M0 0 C2.45615282 2.19052444 4.84190316 4.43047588 7.19921875 6.7265625 C8.06546875 7.5309375 8.93171875 8.3353125 9.82421875 9.1640625 C28.56635781 29.38584412 35.4661993 52.44681114 34.43017578 79.78222656 C33.85819957 87.07401638 31.68636273 93.88735228 29.19921875 100.7265625 C28.80347656 101.84546875 28.40773438 102.964375 28 104.1171875 C23.17718003 116.61486052 15.28627358 128.91807242 4.19921875 136.7265625 C3.73773438 136.03691406 3.27625 135.34726562 2.80078125 134.63671875 C-7.12639954 120.33451559 -19.97763268 110.55874347 -36.80078125 105.7265625 C-42.74078125 105.0665625 -48.68078125 104.4065625 -54.80078125 103.7265625 C-54.80078125 122.2065625 -54.80078125 140.6865625 -54.80078125 159.7265625 C-80.68795494 159.7265625 -101.18261338 149.7139387 -119.86328125 132.1015625 C-136.67220081 114.84405325 -144.2195341 91.78470228 -144.09838867 68.06005859 C-143.67906706 46.20730687 -134.91188703 24.81595652 -119.9140625 8.71484375 C-107.202367 -3.24495848 -92.87913354 -12.16077979 -75.80078125 -16.2734375 C-74.89714844 -16.49773437 -73.99351562 -16.72203125 -73.0625 -16.953125 C-47.80894283 -22.16814529 -20.17514836 -16.37648026 0 0 Z " fill="#FFCD47" transform="translate(310.80078125,194.2734375)"/>
<path d="M0 0 C14.51140763 1.45114076 25.2402406 5.08504316 34.8125 16.375 C42.21854219 25.90995675 45.31051965 34.94899687 45.27415466 46.99209595 C45.28200968 48.29835247 45.28200968 48.29835247 45.29002339 49.63099802 C45.30495028 52.53090145 45.30572693 55.43062729 45.30639648 58.33056641 C45.31402298 60.41738174 45.32245131 62.50419428 45.33161926 64.59100342 C45.35352495 70.24831954 45.3623581 75.90558162 45.36744571 81.56293535 C45.37109445 85.1022394 45.37733726 88.64152941 45.3844471 92.18082809 C45.40892961 104.5422706 45.42199055 116.90367122 45.42553711 129.26513672 C45.42916964 140.76448713 45.45904811 152.2635702 45.50094169 163.76283896 C45.53570431 173.65359232 45.5510866 183.54425735 45.55178314 193.43507135 C45.55257402 199.33428412 45.56122576 205.23322448 45.58978081 211.13237381 C45.6160631 216.6860468 45.61810988 222.23922351 45.60212517 227.7929306 C45.60031866 229.8221152 45.60692855 231.851329 45.62294388 233.8804512 C45.74522698 250.39072212 43.74583699 264.31209076 32 277 C22.30649168 285.84346221 13.02185636 289 0 289 C0 193.63 0 98.26 0 0 Z " fill="#FE4180" transform="translate(406,120)"/>
<path d="M0 0 C0 7.59 0 15.18 0 23 C-2.454375 23.556875 -4.90875 24.11375 -7.4375 24.6875 C-17.28988112 27.08552864 -25.71655642 30.67706161 -32 39 C-38.95152493 51.09847792 -41.29152993 62.78312995 -38.19921875 76.5703125 C-33.74117162 88.30524068 -25.70565131 95.49806869 -14.53125 100.66015625 C-9.67942379 102.50105934 -5.14523415 103.37422828 0 104 C0 109.61 0 115.22 0 121 C-2.660625 121.37125 -5.32125 121.7425 -8.0625 122.125 C-30.79303198 125.74403781 -45.9545299 137.29187897 -60 155 C-76.02528525 140.48022172 -87.91276395 119.530713 -89.13427734 97.58789062 C-90.08504179 71.2367542 -83.41903057 49.43471554 -66.8125 28.8125 C-49.29354802 10.00479753 -25.55991174 0 0 0 Z " fill="#FFD76B" transform="translate(256,176)"/>
<path d="M0 0 C8.79646515 6.17692957 13.74712437 14.3585606 17.125 24.4921875 C18.38806 36.8973553 17.6344632 47.8895621 10.140625 58.23046875 C2.70698702 67.12710994 -7.25165326 73.71022155 -18.9765625 74.7734375 C-32.03153079 75.14032185 -42.87135869 71.15618297 -52.625 62.3671875 C-61.57655818 52.90653596 -63.43963749 41.76624976 -63.20703125 29.375 C-62.67444571 17.96495749 -56.96691208 10.14707994 -48.875 2.4921875 C-48.04355469 1.70521484 -48.04355469 1.70521484 -47.1953125 0.90234375 C-33.84112756 -10.02682751 -14.0400974 -8.47420164 0 0 Z " fill="#FFB14E" transform="translate(278.875,205.5078125)"/>
<path d="M0 0 C13.53314514 1.35331451 22.27067216 4.84286418 31.6875 14.625 C39.85000082 24.60347003 41.30422417 35.31514203 40.27783203 47.80419922 C39.0128071 57.8021203 33.36490064 65.43130483 26 72 C17.8016714 78.08761291 10.18395401 81 0 81 C0 54.27 0 27.54 0 0 Z " fill="#FF9355" transform="translate(256,199)"/>
<path d="M0 0 C36.3 0 72.6 0 110 0 C110 7.26 110 14.52 110 22 C73.7 22 37.4 22 0 22 C0 14.74 0 7.48 0 0 Z " fill="#843561" transform="translate(201,98)"/>
<path d="M0 0 C1.02577148 0.00676758 1.02577148 0.00676758 2.07226562 0.01367188 C3.73571604 0.0253044 5.3991205 0.04323306 7.0625 0.0625 C7.0625 0.3925 7.0625 0.7225 7.0625 1.0625 C4.4225 1.0625 1.7825 1.0625 -0.9375 1.0625 C-0.9375 19.5425 -0.9375 38.0225 -0.9375 57.0625 C-23.81853688 57.0625 -42.31047482 49.45364616 -59.9375 35.0625 C-58.4652444 26.14717444 -48.78865388 18.28242676 -41.9375 13.0625 C-29.30606132 4.32605826 -15.3775061 -0.13608412 0 0 Z " fill="#FFB14E" transform="translate(256.9375,296.9375)"/>
<path d="M0 0 C18.76764582 0 34.08310131 5.08203042 48 18 C51.98794127 22.11008342 55.8194267 26.22914004 59 31 C58.8762085 33.94152178 58.14139165 34.86684476 55.98828125 36.89453125 C38.830091 49.19332163 21.14193583 56 0 56 C0 37.52 0 19.04 0 0 Z " fill="#FF9355" transform="translate(256,298)"/>
<path d="M0 0 C16.5 0 33 0 50 0 C50 7.26 50 14.52 50 22 C33.5 22 17 22 0 22 C0 14.74 0 7.48 0 0 Z " fill="#FED76B" transform="translate(356,98)"/>
<path d="M0 0 C16.5 0 33 0 50 0 C50 7.26 50 14.52 50 22 C33.5 22 17 22 0 22 C0 14.74 0 7.48 0 0 Z " fill="#FEEAB3" transform="translate(106,98)"/>
<path d="M0 0 C2.31 1.98 4.62 3.96 7 6 C8.31636226 7.0263038 9.63685959 8.04737313 10.96484375 9.05859375 C21.18690767 17.48127285 21.18690767 17.48127285 22.6796875 23.94140625 C23.3103387 30.8189133 22.61974315 37.01756055 22 44 C14.74 44 7.48 44 0 44 C0 29.48 0 14.96 0 0 Z " fill="#843561" transform="translate(334,76)"/>
<path d="M0 0 C7.26 0 14.52 0 22 0 C22 7.26 22 14.52 22 22 C14.74 22 7.48 22 0 22 C0 14.74 0 7.48 0 0 Z " fill="#FED76B" transform="translate(312,98)"/>
<path d="M0 0 C7.26 0 14.52 0 22 0 C22 7.26 22 14.52 22 22 C14.74 22 7.48 22 0 22 C0 14.74 0 7.48 0 0 Z " fill="#FEEAB3" transform="translate(178,98)"/>
</svg>
