<?xml version="1.0" encoding="UTF-8"?>
<svg version="1.1" xmlns="http://www.w3.org/2000/svg" width="512" height="512">
<path d="M0 0 C145.86 0 291.72 0 442 0 C442 155.1 442 310.2 442 470 C324.52 470 207.04 470 86 470 C86 483.86 86 497.72 86 512 C82.46617641 510.58647057 80.29268263 509.68333886 77.37109375 507.58203125 C76.72849609 507.13279297 76.08589844 506.68355469 75.42382812 506.22070312 C74.09146737 505.27612878 72.76336785 504.32551695 71.43945312 503.36914062 C70.79814453 502.92376953 70.15683594 502.47839844 69.49609375 502.01953125 C68.92044678 501.60807861 68.3447998 501.19662598 67.75170898 500.77270508 C65.39423774 499.73278919 64.38136814 500.08358345 62 501 C59.97327458 502.11501085 59.97327458 502.11501085 57.9609375 503.50390625 C57.21585938 503.99697266 56.47078125 504.49003906 55.703125 504.99804688 C54.93484375 505.51431641 54.1665625 506.03058594 53.375 506.5625 C51.84389423 507.5887478 50.3101628 508.61109253 48.7734375 509.62890625 C48.09716309 510.08338135 47.42088867 510.53785645 46.72412109 511.00610352 C45 512 45 512 43 512 C43 498.14 43 484.28 43 470 C28.81 470 14.62 470 0 470 C0 314.9 0 159.8 0 0 Z " fill="#818085" transform="translate(35,0)"/>
<path d="M0 0 C70.62 0 141.24 0 214 0 C214 155.1 214 310.2 214 470 C143.38 470 72.76 470 0 470 C0 413.57 0 357.14 0 299 C-3.96 299 -7.92 299 -12 299 C-12 277.88 -12 256.76 -12 235 C-8.04 235 -4.08 235 0 235 C0 230.05 0 225.1 0 220 C-1.98 220 -3.96 220 -6 220 C-6 198.88 -6 177.76 -6 156 C-4.02 156 -2.04 156 0 156 C0 104.52 0 53.04 0 0 Z " fill="#ACABB1" transform="translate(263,0)"/>
<path d="M0 0 C14.19 0 28.38 0 43 0 C43 155.1 43 310.2 43 470 C28.81 470 14.62 470 0 470 C0 314.9 0 159.8 0 0 Z " fill="#000000" transform="translate(35,0)"/>
<path d="M0 0 C9.57 0 19.14 0 29 0 C29 155.1 29 310.2 29 470 C19.43 470 9.86 470 0 470 C0 314.9 0 159.8 0 0 Z " fill="#FE5123" transform="translate(448,0)"/>
<path d="M0 0 C9.57 0 19.14 0 29 0 C29 62.04 29 124.08 29 188 C19.43 188 9.86 188 0 188 C0 125.96 0 63.92 0 0 Z " fill="#6C0014" transform="translate(448,0)"/>
<path d="M0 0 C5.50817022 3.20979704 9.60085458 6.76541183 13 12.1875 C13.59296875 13.11433594 14.1859375 14.04117188 14.796875 14.99609375 C18.58107423 22.16776164 18.36433144 31.84291395 16.6015625 39.60546875 C13.37847728 48.48961392 7.79403704 54.44026247 -0.5390625 58.7421875 C-1.26867187 59.07476562 -1.99828125 59.40734375 -2.75 59.75 C-3.52988281 60.11351562 -4.30976563 60.47703125 -5.11328125 60.8515625 C-12.71517005 63.44183572 -20.93751549 62.6108568 -28.125 59.25 C-36.87078208 54.24242837 -42.36053987 48.48569284 -45.90234375 38.96484375 C-48.04928377 30.82230164 -47.70877504 22.75904661 -44.125 15.09375 C-35.11223173 -0.2689232 -16.69694631 -7.99958174 0 0 Z " fill="#FDFCFD" transform="translate(224.75,237.25)"/>
<path d="M0 0 C8.05644425 4.75879818 13.97708728 11.25971784 16.953125 20.20703125 C18.84656999 30.66784617 17.87539867 40.74759385 11.83984375 49.59765625 C7.1458711 55.47058017 0.8674709 60.03666226 -6.65234375 61.38671875 C-17.83476025 62.18922158 -26.8435867 61.4210981 -35.90234375 54.32421875 C-41.8911306 48.71200876 -46.15655222 40.9298306 -46.890625 32.72265625 C-47.17806849 21.25517374 -44.07496725 13.91575608 -36.16796875 5.58984375 C-26.16719099 -3.16860137 -12.1829787 -5.64577062 0 0 Z " fill="#FDFDFD" transform="translate(230.65234375,158.61328125)"/>
<path d="M0 0 C6.86358685 4.40149858 11.43769671 11.31309012 14 19 C14.83092321 31.00071065 14.17083724 40.25461303 6.25 49.875 C2.56372059 53.75998221 -1.01900979 56.10993872 -6 58 C-6.969375 58.4125 -7.93875 58.825 -8.9375 59.25 C-17.338111 61.30729249 -26.51488073 60.21251873 -34.0625 55.9375 C-42.37941585 50.24348376 -47.86382178 42.8931754 -50 33 C-50.97684183 25.0529847 -49.99462996 18.92494675 -46 12 C-45.401875 10.948125 -44.80375 9.89625 -44.1875 8.8125 C-33.61083452 -4.7860699 -15.2010172 -9.02472264 0 0 Z " fill="#FDFDFD" transform="translate(381,239)"/>
<path d="M0 0 C9.57 0 19.14 0 29 0 C29 31.02 29 62.04 29 94 C19.43 94 9.86 94 0 94 C0 62.98 0 31.96 0 0 Z " fill="#FFD943" transform="translate(448,376)"/>
<path d="M0 0 C9.57 0 19.14 0 29 0 C29 31.02 29 62.04 29 94 C19.43 94 9.86 94 0 94 C0 62.98 0 31.96 0 0 Z " fill="#000000" transform="translate(448,0)"/>
<path d="M0 0 C5.445 -0.0825 10.89 -0.165 16.5 -0.25 C18.20220703 -0.28641602 19.90441406 -0.32283203 21.65820312 -0.36035156 C37.1645963 -0.55524256 37.1645963 -0.55524256 43.4621582 5.37744141 C48.74844412 11.24004813 50.57732543 16.48110987 50.35546875 24.24609375 C49.56669454 30.35692689 46.65755863 35.00780689 42 39 C43.79046574 44.06269622 46.48728988 48.59521743 49.125 53.25 C50.04615254 54.87914581 50.96552606 56.50929926 51.8828125 58.140625 C52.28902832 58.85766602 52.69524414 59.57470703 53.11376953 60.31347656 C54 62 54 62 54 63 C47.4 63 40.8 63 34 63 C33.35933594 61.71222656 32.71867187 60.42445313 32.05859375 59.09765625 C31.18622446 57.41857987 30.31245284 55.74023156 29.4375 54.0625 C29.01919922 53.21236328 28.60089844 52.36222656 28.16992188 51.48632812 C27.74130859 50.67744141 27.31269531 49.86855469 26.87109375 49.03515625 C26.48880615 48.2862915 26.10651855 47.53742676 25.71264648 46.76586914 C23.58538735 44.2119974 23.58538735 44.2119974 17 44 C17 50.27 17 56.54 17 63 C11.39 63 5.78 63 0 63 C0 42.21 0 21.42 0 0 Z " fill="#FEFEFE" transform="translate(258,157)"/>
<path d="M0 0 C9.24 0 18.48 0 28 0 C28 30.69 28 61.38 28 93 C18.76 93 9.52 93 0 93 C0 62.31 0 31.62 0 0 Z " fill="#D80027" transform="translate(448,188)"/>
<path d="M0 0 C8.1675 -0.185625 8.1675 -0.185625 16.5 -0.375 C18.20220703 -0.42962402 19.90441406 -0.48424805 21.65820312 -0.54052734 C35.05815997 -0.79052292 35.05815997 -0.79052292 40.63330078 4.44433594 C41.08431152 4.95770508 41.53532227 5.47107422 42 6 C42.78375 6.86625 43.5675 7.7325 44.375 8.625 C48.51342395 14.67346577 48.72880681 19.74837225 48 27 C46.31217449 33.406065 43.45338562 37.32731173 38 41 C33.62229428 43.25971501 29.49969377 43.23594112 24.6875 43.125 C20.8821875 43.063125 20.8821875 43.063125 17 43 C17 49.6 17 56.2 17 63 C11.39 63 5.78 63 0 63 C0 42.21 0 21.42 0 0 Z " fill="#FDFDFD" transform="translate(131,157)"/>
<path d="M0 0 C14.19 0 28.38 0 43 0 C43 4.95 43 9.9 43 15 C34.42 15 25.84 15 17 15 C17 18.63 17 22.26 17 26 C23.93 26 30.86 26 38 26 C38 30.62 38 35.24 38 40 C31.07 40 24.14 40 17 40 C17 47.59 17 55.18 17 63 C11.39 63 5.78 63 0 63 C0 42.21 0 21.42 0 0 Z " fill="#FEFEFE" transform="translate(131,235)"/>
<path d="M0 0 C17.82 0 35.64 0 54 0 C54 5.28 54 10.56 54 16 C48.06 16 42.12 16 36 16 C36 31.84 36 47.68 36 64 C30.06 64 24.12 64 18 64 C18 48.16 18 32.32 18 16 C12.06 16 6.12 16 0 16 C0 10.72 0 5.44 0 0 Z " fill="#FBFBFB" transform="translate(314,156)"/>
<path d="M0 0 C14.19 0 28.38 0 43 0 C43 13.86 43 27.72 43 42 C39.46617641 40.58647057 37.29268263 39.68333886 34.37109375 37.58203125 C33.72849609 37.13279297 33.08589844 36.68355469 32.42382812 36.22070312 C31.09146737 35.27612878 29.76336785 34.32551695 28.43945312 33.36914062 C27.79814453 32.92376953 27.15683594 32.47839844 26.49609375 32.01953125 C25.92044678 31.60807861 25.3447998 31.19662598 24.75170898 30.77270508 C22.39423774 29.73278919 21.38136814 30.08358345 19 31 C16.97327458 32.11501085 16.97327458 32.11501085 14.9609375 33.50390625 C14.21585938 33.99697266 13.47078125 34.49003906 12.703125 34.99804688 C11.93484375 35.51431641 11.1665625 36.03058594 10.375 36.5625 C8.84389423 37.5887478 7.3101628 38.61109253 5.7734375 39.62890625 C4.75902588 40.3106189 4.75902588 40.3106189 3.72412109 41.00610352 C2 42 2 42 0 42 C0 28.14 0 14.28 0 0 Z " fill="#D80026" transform="translate(78,470)"/>
<path d="M0 0 C5.61 0 11.22 0 17 0 C17 15.84 17 31.68 17 48 C26.57 48 36.14 48 46 48 C46 52.95 46 57.9 46 63 C30.82 63 15.64 63 0 63 C0 42.21 0 21.42 0 0 Z " fill="#FDFDFD" transform="translate(252,235)"/>
<path d="M0 0 C5.61 0 11.22 0 17 0 C17 20.79 17 41.58 17 63 C11.39 63 5.78 63 0 63 C0 42.21 0 21.42 0 0 Z " fill="#FFFFFF" transform="translate(305,235)"/>
<path d="M0 0 C4.18145284 1.72712182 6.42475328 4.32107611 9 8 C11.05292104 14.15876313 10.49072473 20.3197568 7.98828125 26.2734375 C5.85430719 30.0015661 2.96505385 31.67831538 -1 33 C-5.62453729 33.37906043 -8.0499328 33.45676308 -12.25 31.4375 C-16.20640247 27.93068872 -18.59958127 24.79843199 -19.34765625 19.5703125 C-19.59439532 12.51142968 -18.16018598 7.47631075 -13.4375 2.0625 C-9.37604242 -1.01405412 -4.85655219 -0.74027847 0 0 Z " fill="#828186" transform="translate(221,172)"/>
<path d="M0 0 C3.95144894 1.9545711 6.45841176 4.40256931 8.41796875 8.35546875 C10.32117361 14.11039773 9.48933481 20.05746747 7.09765625 25.54296875 C5.28634709 28.72312987 3.39208695 30.87193842 0.07421875 32.33984375 C-4.57307466 33.25808724 -8.84413683 33.42511388 -13.12109375 31.1953125 C-16.96961244 28.14387195 -19.07421847 25.25998426 -19.92578125 20.33984375 C-20.64631212 13.44333403 -20.16675755 8.92007573 -15.92578125 3.33984375 C-11.0507262 -0.98122777 -6.13767514 -2.10399006 0 0 Z " fill="#ADACB2" transform="translate(368.92578125,250.66015625)"/>
<path d="M0 0 C4.32459505 2.12026582 6.51287193 4.8481852 8.40234375 9.24609375 C10.36076688 15.63428348 9.11648107 21.54304425 6.05859375 27.38671875 C3.71363398 30.24463847 2.5768388 31.2139704 -0.94140625 32.38671875 C-5.42961036 32.78228928 -9.5622564 32.89640456 -13.81640625 31.32421875 C-17.58662182 27.88666926 -19.62763895 24.75740501 -20.29296875 19.73046875 C-20.46991792 13.87505985 -19.9357894 9.44619372 -16.94140625 4.38671875 C-11.81560284 -0.36402588 -6.85758323 -2.16627881 0 0 Z " fill="#828186" transform="translate(215.94140625,250.61328125)"/>
<path d="M0 0 C11.46587206 -0.36986684 11.46587206 -0.36986684 13.8671875 1.29296875 C15.74703815 4.12570921 15.29361846 6.7114732 15 10 C14.01 11.485 14.01 11.485 13 13 C8.64352194 13.41996896 4.38442431 13.12895366 0 13 C0 8.71 0 4.42 0 0 Z " fill="#ACABB1" transform="translate(275,172)"/>
<path d="M0 0 C8.3984375 -0.1953125 8.3984375 -0.1953125 11 0 C13 2 13 2 13.23046875 4.09375 C13.20919922 5.28484375 13.20919922 5.28484375 13.1875 6.5 C13.17783203 7.69109375 13.17783203 7.69109375 13.16796875 8.90625 C13 11 13 11 12 13 C8.04 13 4.08 13 0 13 C0 8.71 0 4.42 0 0 Z " fill="#828186" transform="translate(148,172)"/>
</svg>
